<svg width="125" height="125" viewBox="0 0 125 125" fill="none" xmlns="http://www.w3.org/2000/svg">
<rect width="125" height="125" rx="5" fill="black"/>
<path d="M62 50.25C68.7575 82.5925 53.5 105.5 53.5 105.5H66.25C74.24 80.85 70.5 63.3825 68.375 54.5M77.555 42.43C78.2775 43.3225 79 44.2575 79.5525 45.235C86.82 56.7525 85.375 71.2875 76.875 81.105C80.445 72.3925 79.935 62.1075 74.5375 53.5225C74.1975 52.97 73.815 52.5025 73.475 51.9925C70.9675 48.465 67.78 45.66 64.295 43.5775C52.055 47.4875 43.215 58.92 43.215 72.435C43.215 75.58 43.6825 78.5975 44.5325 81.4025C40.9625 76.43 38.88 70.3525 38.88 63.8075C38.88 53.82 43.725 44.98 51.1625 39.455C45 38.9875 38.455 40.3475 32.76 43.875C30.125 45.6175 27.83 47.615 25.875 49.8675C28.2125 44.215 32.25 39.1575 37.775 35.6725C44.15 31.6775 51.375 30.36 58.345 31.38C56.6025 29 54.4775 26.7475 51.9275 24.75C49.4625 22.965 46.785 21.52 43.98 20.5C50.1 20.67 56.22 22.625 61.4475 26.5775C64.125 28.575 66.25 30.9975 67.95 33.5475C68.375 33.5475 68.7575 33.505 69.1825 33.505C82.7825 33.505 94.3 42.4725 98.125 54.84C93.365 48.125 86.0125 43.5775 77.555 42.43Z" fill="#FABB18"/>
</svg>
